<mxfile host="65bd71144e">
    <diagram id="hZAU-RvxWQN5o6zg_8yi" name="Страница 1">
        <mxGraphModel dx="764" dy="574" grid="1" gridSize="10" guides="1" tooltips="1" connect="1" arrows="1" fold="1" page="1" pageScale="1" pageWidth="827" pageHeight="1169" math="0" shadow="0">
            <root>
                <mxCell id="ZwNKLBIC_Av6bE0C3uuk-0"/>
                <mxCell id="ZwNKLBIC_Av6bE0C3uuk-1" parent="ZwNKLBIC_Av6bE0C3uuk-0"/>
                <mxCell id="7XdFP3y9f-zVWF4GXZ2K-0" value="&lt;div style=&quot;color: rgb(212 , 212 , 212) ; background-color: rgb(30 , 30 , 30) ; font-family: &amp;#34;consolas&amp;#34; , &amp;#34;courier new&amp;#34; , monospace ; font-size: 16px ; line-height: 22px&quot;&gt;&lt;div&gt;&lt;span style=&quot;color: #6a9955&quot;&gt;Напишите программу,&amp;nbsp;&lt;/span&gt;&lt;/div&gt;&lt;div&gt;&lt;span style=&quot;color: #6a9955&quot;&gt;которая принимает&lt;/span&gt;&lt;/div&gt;&lt;div&gt;&lt;span style=&quot;color: #6a9955&quot;&gt;на вход&amp;nbsp;&lt;/span&gt;&lt;span style=&quot;color: rgb(106 , 153 , 85)&quot;&gt;число (N)&amp;nbsp;&lt;/span&gt;&lt;/div&gt;&lt;div&gt;&lt;span style=&quot;color: rgb(106 , 153 , 85)&quot;&gt;и выдаёт&amp;nbsp;&lt;/span&gt;&lt;/div&gt;&lt;div&gt;&lt;span style=&quot;color: #6a9955&quot;&gt;таблицу кубов&amp;nbsp;&lt;/span&gt;&lt;/div&gt;&lt;div&gt;&lt;span style=&quot;color: #6a9955&quot;&gt;чисел от 1 до N.&lt;/span&gt;&lt;/div&gt;&lt;/div&gt;" style="text;html=1;align=center;verticalAlign=middle;resizable=0;points=[];autosize=1;strokeColor=none;fillColor=none;" vertex="1" parent="ZwNKLBIC_Av6bE0C3uuk-1">
                    <mxGeometry x="240" y="60" width="190" height="140" as="geometry"/>
                </mxCell>
                <mxCell id="7XdFP3y9f-zVWF4GXZ2K-8" style="edgeStyle=none;html=1;exitX=0.5;exitY=1;exitDx=0;exitDy=0;entryX=0.5;entryY=0;entryDx=0;entryDy=0;" edge="1" parent="ZwNKLBIC_Av6bE0C3uuk-1" source="7XdFP3y9f-zVWF4GXZ2K-1" target="7XdFP3y9f-zVWF4GXZ2K-3">
                    <mxGeometry relative="1" as="geometry"/>
                </mxCell>
                <mxCell id="7XdFP3y9f-zVWF4GXZ2K-1" value="start" style="ellipse;whiteSpace=wrap;html=1;" vertex="1" parent="ZwNKLBIC_Av6bE0C3uuk-1">
                    <mxGeometry x="80" y="40" width="120" height="40" as="geometry"/>
                </mxCell>
                <mxCell id="7XdFP3y9f-zVWF4GXZ2K-18" style="edgeStyle=none;html=1;exitX=0.5;exitY=1;exitDx=0;exitDy=0;entryX=0.5;entryY=0;entryDx=0;entryDy=0;" edge="1" parent="ZwNKLBIC_Av6bE0C3uuk-1" source="7XdFP3y9f-zVWF4GXZ2K-2" target="7XdFP3y9f-zVWF4GXZ2K-4">
                    <mxGeometry relative="1" as="geometry"/>
                </mxCell>
                <mxCell id="7XdFP3y9f-zVWF4GXZ2K-2" value="index = 1" style="shape=parallelogram;perimeter=parallelogramPerimeter;whiteSpace=wrap;html=1;fixedSize=1;" vertex="1" parent="ZwNKLBIC_Av6bE0C3uuk-1">
                    <mxGeometry x="80" y="200" width="120" height="40" as="geometry"/>
                </mxCell>
                <mxCell id="7XdFP3y9f-zVWF4GXZ2K-9" style="edgeStyle=none;html=1;exitX=0.5;exitY=1;exitDx=0;exitDy=0;entryX=0.5;entryY=0;entryDx=0;entryDy=0;" edge="1" parent="ZwNKLBIC_Av6bE0C3uuk-1" source="7XdFP3y9f-zVWF4GXZ2K-3" target="7XdFP3y9f-zVWF4GXZ2K-2">
                    <mxGeometry relative="1" as="geometry"/>
                </mxCell>
                <mxCell id="7XdFP3y9f-zVWF4GXZ2K-3" value="n" style="rounded=0;whiteSpace=wrap;html=1;" vertex="1" parent="ZwNKLBIC_Av6bE0C3uuk-1">
                    <mxGeometry x="80" y="120" width="120" height="40" as="geometry"/>
                </mxCell>
                <mxCell id="7XdFP3y9f-zVWF4GXZ2K-19" style="edgeStyle=none;html=1;exitX=0.5;exitY=1;exitDx=0;exitDy=0;entryX=0.5;entryY=0;entryDx=0;entryDy=0;" edge="1" parent="ZwNKLBIC_Av6bE0C3uuk-1" source="7XdFP3y9f-zVWF4GXZ2K-4" target="7XdFP3y9f-zVWF4GXZ2K-6">
                    <mxGeometry relative="1" as="geometry"/>
                </mxCell>
                <mxCell id="7XdFP3y9f-zVWF4GXZ2K-22" style="edgeStyle=none;html=1;exitX=1;exitY=0.5;exitDx=0;exitDy=0;entryX=0;entryY=0.5;entryDx=0;entryDy=0;" edge="1" parent="ZwNKLBIC_Av6bE0C3uuk-1" source="7XdFP3y9f-zVWF4GXZ2K-4" target="7XdFP3y9f-zVWF4GXZ2K-7">
                    <mxGeometry relative="1" as="geometry"/>
                </mxCell>
                <mxCell id="7XdFP3y9f-zVWF4GXZ2K-4" value="index &amp;lt; n" style="rhombus;whiteSpace=wrap;html=1;" vertex="1" parent="ZwNKLBIC_Av6bE0C3uuk-1">
                    <mxGeometry x="80" y="270" width="120" height="60" as="geometry"/>
                </mxCell>
                <mxCell id="7XdFP3y9f-zVWF4GXZ2K-21" style="edgeStyle=none;html=1;exitX=0;exitY=0.5;exitDx=0;exitDy=0;entryX=0;entryY=0.5;entryDx=0;entryDy=0;" edge="1" parent="ZwNKLBIC_Av6bE0C3uuk-1" source="7XdFP3y9f-zVWF4GXZ2K-5" target="7XdFP3y9f-zVWF4GXZ2K-4">
                    <mxGeometry relative="1" as="geometry">
                        <Array as="points">
                            <mxPoint x="40" y="460"/>
                            <mxPoint x="40" y="380"/>
                            <mxPoint x="40" y="300"/>
                        </Array>
                    </mxGeometry>
                </mxCell>
                <mxCell id="7XdFP3y9f-zVWF4GXZ2K-5" value="index = index + 1" style="rounded=0;whiteSpace=wrap;html=1;" vertex="1" parent="ZwNKLBIC_Av6bE0C3uuk-1">
                    <mxGeometry x="80" y="440" width="120" height="40" as="geometry"/>
                </mxCell>
                <mxCell id="7XdFP3y9f-zVWF4GXZ2K-20" style="edgeStyle=none;html=1;exitX=0.503;exitY=0.872;exitDx=0;exitDy=0;entryX=0.5;entryY=0;entryDx=0;entryDy=0;exitPerimeter=0;" edge="1" parent="ZwNKLBIC_Av6bE0C3uuk-1" source="7XdFP3y9f-zVWF4GXZ2K-6" target="7XdFP3y9f-zVWF4GXZ2K-5">
                    <mxGeometry relative="1" as="geometry"/>
                </mxCell>
                <mxCell id="7XdFP3y9f-zVWF4GXZ2K-6" value="index³" style="shape=document;whiteSpace=wrap;html=1;boundedLbl=1;" vertex="1" parent="ZwNKLBIC_Av6bE0C3uuk-1">
                    <mxGeometry x="80" y="360" width="120" height="50" as="geometry"/>
                </mxCell>
                <mxCell id="7XdFP3y9f-zVWF4GXZ2K-7" value="end" style="ellipse;whiteSpace=wrap;html=1;" vertex="1" parent="ZwNKLBIC_Av6bE0C3uuk-1">
                    <mxGeometry x="240" y="280" width="120" height="40" as="geometry"/>
                </mxCell>
                <mxCell id="7XdFP3y9f-zVWF4GXZ2K-23" value="true" style="text;html=1;align=center;verticalAlign=middle;resizable=0;points=[];autosize=1;strokeColor=none;fillColor=none;" vertex="1" parent="ZwNKLBIC_Av6bE0C3uuk-1">
                    <mxGeometry x="130" y="330" width="40" height="20" as="geometry"/>
                </mxCell>
                <mxCell id="7XdFP3y9f-zVWF4GXZ2K-24" value="false" style="text;html=1;align=center;verticalAlign=middle;resizable=0;points=[];autosize=1;strokeColor=none;fillColor=none;" vertex="1" parent="ZwNKLBIC_Av6bE0C3uuk-1">
                    <mxGeometry x="200" y="280" width="40" height="20" as="geometry"/>
                </mxCell>
            </root>
        </mxGraphModel>
    </diagram>
</mxfile>